<svg height="512" viewBox="0 0 64 64" width="512" xmlns="http://www.w3.org/2000/svg"><g id="cash"><path d="m61 34h-2v-9a1 1 0 0 0 1-1v-4a1 1 0 0 0 -1-1h-12.89l-.11-2.06a1 1 0 0 0 -1-.94h-2v-.5a4.5 4.5 0 0 0 -9 0v.5h-2a1.006 1.006 0 0 0 -1 .94l-.95 17.06h-2.11l-.94-15.06a1 1 0 0 0 -1-.94h-5v-4h6a1 1 0 0 0 1-1v-4a1 1 0 0 0 -1-1h-14a1 1 0 0 0 -1 1v4a1 1 0 0 0 1 1h6v4h-13a1 1 0 0 0 -1 .94l-.94 15.06h-1.06a1 1 0 0 0 -1 1v4a1 1 0 0 0 1 1h1v21a1 1 0 0 0 1 1h54a1 1 0 0 0 1-1v-21h1a1 1 0 0 0 1-1v-4a1 1 0 0 0 -1-1zm-3-13v2h-11.66l-.11-2zm-1 4v9h-10.05l-.5-9zm-21-9.5a2.5 2.5 0 0 1 5 0v.5h-5zm-3.05 2.5h1.05v2h2v-2h5v2h2v-2h1.05l.12 2.06.22 3.99v.01l.55 9.94h-12.88zm-18.95-6v-2h12v2zm-7.06 8h18.12l.88 14h-19.88zm51.06 40h-52v-20h52zm2-22h-56v-2h56z"/><path d="m19 21h-10a1 1 0 0 0 -1 1v3a1 1 0 0 0 1 1h10a1 1 0 0 0 1-1v-3a1 1 0 0 0 -1-1zm-1 3h-8v-1h8z"/><path d="m10 27h2v2h-2z"/><path d="m13 27h2v2h-2z"/><path d="m16 27h2v2h-2z"/><path d="m10 30h2v2h-2z"/><path d="m13 30h2v2h-2z"/><path d="m16 30h2v2h-2z"/><path d="m32 41a9 9 0 1 0 9 9 9.014 9.014 0 0 0 -9-9zm0 16a7 7 0 1 1 7-7 7.008 7.008 0 0 1 -7 7z"/><path d="m36 52a3.009 3.009 0 0 1 -3 3v1h-2v-1a3.009 3.009 0 0 1 -3-3h2a1 1 0 0 0 1 1h2a1 1 0 0 0 0-2h-2a3 3 0 0 1 0-6v-1h2v1a3.009 3.009 0 0 1 3 3h-2a1 1 0 0 0 -1-1h-2a1 1 0 0 0 0 2h2a3.009 3.009 0 0 1 3 3z"/></g></svg>