<svg width="454" height="455" viewBox="0 0 454 455" fill="none" xmlns="http://www.w3.org/2000/svg">
<path d="M401.648 19.2345C377.254 -5.11707 337.75 -5.11707 313.355 19.2345L291.254 41.4572L55.9844 276.602L55.4844 277.106C55.3633 277.227 55.3633 277.356 55.2344 277.356C54.9844 277.731 54.6094 278.102 54.3633 278.477C54.3633 278.602 54.2344 278.602 54.2344 278.727C53.9844 279.102 53.8633 279.352 53.6094 279.727C53.4883 279.852 53.4883 279.973 53.3633 280.102C53.2383 280.477 53.1133 280.727 52.9844 281.102C52.9844 281.223 52.8633 281.223 52.8633 281.352L0.664043 438.32C-0.867207 442.789 0.296856 447.738 3.66014 451.055C6.02342 453.387 9.21092 454.692 12.5273 454.68C13.8828 454.656 15.2265 454.445 16.5234 454.055L173.371 401.731C173.492 401.731 173.492 401.731 173.621 401.609C174.016 401.492 174.395 401.324 174.742 401.106C174.84 401.094 174.926 401.051 174.996 400.984C175.367 400.734 175.867 400.481 176.242 400.231C176.613 399.984 176.992 399.609 177.367 399.359C177.492 399.231 177.613 399.231 177.613 399.109C177.742 398.984 177.992 398.863 178.117 398.609L435.488 141.238C459.84 116.844 459.84 77.34 435.488 52.9493L401.648 19.2345ZM169.375 372.383L82.4609 285.473L299.996 67.9376L386.91 154.848L169.375 372.383ZM70.2187 308.574L146.148 384.5L32.1328 422.461L70.2187 308.574ZM417.883 123.754L404.645 137.117L317.727 50.1993L331.094 36.84C345.715 22.2306 369.414 22.2306 384.039 36.84L418.004 70.8048C432.516 85.4923 432.461 109.137 417.883 123.754Z" fill="#94919A"/>
</svg>
